<?xml version="1.0" encoding="UTF-8"?>
<svg width="1000px" height="1000px" viewBox="0 0 1000 1000" version="1.1" xmlns="http://www.w3.org/2000/svg" xmlns:xlink="http://www.w3.org/1999/xlink">
    <!-- Generator: sketchtool 48.2 (47327) - http://www.bohemiancoding.com/sketch -->
    <title>HOT</title>
    <desc>Created with sketchtool.</desc>
    <defs></defs>
    <g id="Page-1" stroke="none" stroke-width="1" fill="none" fill-rule="evenodd">
        <g id="hot" fill="#333333">
            <path d="M500,1000 C223.857625,1000 0,776.142375 0,500 C0,223.857625 223.857625,0 500,0 C776.142375,0 1000,223.857625 1000,500 C1000,776.142375 776.142375,1000 500,1000 Z M166.666667,379.716981 L166.666667,620.283019 L193.769625,620.283019 L193.769625,508.086253 L330.275987,508.086253 L330.275987,620.283019 L357.378946,620.283019 L357.378946,379.716981 L330.275987,379.716981 L330.275987,484.16442 L193.769625,484.16442 L193.769625,379.716981 L166.666667,379.716981 Z M507.767311,375 C472.070732,375 444.306726,387.12938 423.814246,411.38814 C404.313337,434.299191 394.728144,463.948787 394.728144,500.336927 C394.728144,536.38814 404.313337,566.037736 423.814246,588.948787 C444.306726,612.87062 472.070732,625 507.436787,625 C542.802843,625 570.897372,612.87062 591.389853,588.948787 C610.560238,566.037736 620.475954,536.725067 620.475954,500.336927 C620.475954,463.61186 610.560238,433.962264 591.389853,411.051213 C570.897372,386.792453 542.802843,375 507.767311,375 Z M507.767311,399.595687 C534.870269,399.595687 556.023798,408.692722 571.227896,427.22372 C585.770947,445.41779 593.372996,469.67655 593.372996,500.336927 C593.372996,530.660377 585.770947,554.58221 571.227896,572.77628 C556.023798,590.97035 534.539745,600.404313 507.436787,600.404313 C480.333829,600.404313 458.849777,590.97035 443.645678,572.102426 C429.102628,553.908356 421.831102,529.986523 421.831102,500.336927 C421.831102,470.350404 429.102628,446.428571 443.645678,428.234501 C459.180301,409.02965 480.664353,399.595687 507.767311,399.595687 Z M639.976863,379.716981 L639.976863,403.638814 L723.268881,403.638814 L723.268881,620.283019 L750.041315,620.283019 L750.041315,403.638814 L833.333333,403.638814 L833.333333,379.716981 L639.976863,379.716981 Z" id="Combined-Shape"></path>
        </g>
    </g>
</svg>